<svg width="16" height="17" viewBox="0 0 16 17" fill="none" xmlns="http://www.w3.org/2000/svg">
<path d="M9 1.4754V2.1004C11.2812 2.56915 13 4.56915 13 6.9754V7.56915C13 9.0379 13.5312 10.4754 14.5 11.5692L14.7188 11.8192C15 12.1317 15.0625 12.5379 14.9062 12.9129C14.75 13.2567 14.375 13.4754 14 13.4754H2C1.59375 13.4754 1.21875 13.2567 1.0625 12.9129C0.90625 12.5379 0.96875 12.1317 1.25 11.8192L1.46875 11.5692C2.4375 10.4754 3 9.0379 3 7.56915V6.9754C3 4.56915 4.6875 2.56915 7 2.1004V1.4754C7 0.944153 7.4375 0.475403 8 0.475403C8.53125 0.475403 9 0.944153 9 1.4754ZM8 16.4754C7.46875 16.4754 6.9375 16.2879 6.5625 15.9129C6.1875 15.5379 6 15.0067 6 14.4754H10C10 15.0067 9.78125 15.5379 9.40625 15.9129C9.03125 16.2879 8.5 16.4754 8 16.4754Z" fill="#4A4848" fill-opacity="0.8"/>
</svg>
