<svg width="12" height="13" viewBox="0 0 12 13" fill="none" xmlns="http://www.w3.org/2000/svg">
<path d="M5.48438 0.640625C5.8125 0.523438 6.16406 0.523438 6.49219 0.640625L10.9922 2.25781C11.5781 2.46875 12 3.03125 12 3.66406V9.35938C12 9.99219 11.5781 10.5547 10.9922 10.7656L6.49219 12.3828C6.16406 12.5 5.8125 12.5 5.48438 12.3828L0.984375 10.7656C0.398438 10.5547 0 9.99219 0 9.35938V3.66406C0 3.03125 0.398438 2.46875 0.984375 2.25781L5.48438 0.640625ZM6 2.04688L1.92188 3.5L6 4.95312L10.0547 3.5L6 2.04688ZM6.75 10.6953L10.5 9.35938V4.95312L6.75 6.28906V10.6953Z" fill="#4A4848"/>
</svg>
