<svg width="19" height="16" viewBox="0 0 19 16" fill="none" xmlns="http://www.w3.org/2000/svg">
<path d="M18.4688 8C18.4688 8.5625 18 9 17.4688 9H16.4688L16.5 14C16.5 14.0938 16.5 14.1875 16.5 14.25V14.75C16.5 15.4688 15.9375 16 15.25 16H14.75C14.6875 16 14.6562 16 14.625 16C14.5938 16 14.5312 16 14.5 16H12.75C12.0312 16 11.5 15.4688 11.5 14.75V12C11.5 11.4688 11.0312 11 10.5 11H8.5C7.9375 11 7.5 11.4688 7.5 12V14.75C7.5 15.4688 6.9375 16 6.25 16H4.5C4.4375 16 4.40625 16 4.34375 16C4.3125 16 4.28125 16 4.25 16H3.75C3.03125 16 2.5 15.4688 2.5 14.75V11.25C2.5 11.25 2.5 11.2188 2.5 11.1875V9H1.5C0.9375 9 0.5 8.5625 0.5 8C0.5 7.71875 0.59375 7.46875 0.8125 7.25L8.8125 0.28125C9.03125 0.0625 9.28125 0 9.5 0C9.71875 0 9.96875 0.09375 10.1562 0.25L18.125 7.25C18.375 7.46875 18.5 7.71875 18.4688 8Z" fill="white"/>
</svg>
