<svg width="12" height="13" viewBox="0 0 12 13" fill="none" xmlns="http://www.w3.org/2000/svg">
<path d="M6.17969 3.99219C6.25 4.29688 6.25 4.60156 6.20312 4.90625C6.13281 5.1875 5.99219 5.46875 5.80469 5.72656C5.47656 6.10156 5.05469 6.35938 4.53906 6.47656V11.5625C4.53906 11.8203 4.44531 12.0547 4.28125 12.2422C4.09375 12.4062 3.85938 12.5 3.60156 12.5C3.36719 12.5 3.13281 12.4062 2.94531 12.2422C2.78125 12.0547 2.66406 11.8203 2.66406 11.5625V6.47656C2.17188 6.38281 1.72656 6.10156 1.42188 5.72656C1.23438 5.49219 1.09375 5.21094 1.02344 4.90625C0.953125 4.60156 0.976562 4.29688 1.04688 3.99219L1.75 0.804688C1.77344 0.710938 1.82031 0.640625 1.89062 0.570312C1.98438 0.523438 2.05469 0.5 2.14844 0.523438C2.24219 0.523438 2.33594 0.570312 2.40625 0.640625C2.45312 0.710938 2.5 0.804688 2.5 0.875V4.25H2.89844L3.29688 0.78125C3.32031 0.710938 3.34375 0.640625 3.41406 0.59375C3.46094 0.546875 3.53125 0.523438 3.60156 0.523438C3.69531 0.523438 3.76562 0.546875 3.8125 0.59375C3.88281 0.640625 3.90625 0.710938 3.92969 0.78125L4.32812 4.25H4.72656V0.875C4.72656 0.804688 4.77344 0.710938 4.82031 0.640625C4.89062 0.570312 4.98438 0.523438 5.07812 0.523438C5.17188 0.5 5.24219 0.523438 5.33594 0.570312C5.40625 0.640625 5.45312 0.710938 5.47656 0.804688L6.17969 3.99219ZM11.5 11.5625C11.5 11.8203 11.3828 12.0547 11.2188 12.2422C11.0312 12.4062 10.7969 12.5 10.5625 12.5C10.3047 12.5 10.0703 12.4062 9.88281 12.2422C9.71875 12.0547 9.625 11.8203 9.625 11.5625V8.75H9.22656C9.01562 8.75 8.82812 8.72656 8.64062 8.65625C8.45312 8.5625 8.28906 8.46875 8.14844 8.32812C8.00781 8.1875 7.91406 8 7.82031 7.83594C7.75 7.64844 7.72656 7.4375 7.72656 7.25V4.57812C7.75 3.71094 8.00781 2.86719 8.47656 2.16406C8.96875 1.4375 9.64844 0.898438 10.4688 0.570312C10.5625 0.523438 10.7031 0.5 10.8203 0.523438C10.9375 0.523438 11.0547 0.570312 11.1484 0.640625C11.2656 0.710938 11.3359 0.804688 11.4062 0.921875C11.4531 1.01562 11.4766 1.13281 11.5 1.25V11.5625Z" fill="#4A4848"/>
</svg>
