<svg width="21" height="16" viewBox="0 0 21 16" fill="none" xmlns="http://www.w3.org/2000/svg">
<path d="M10.4688 10C12.2812 10 13.7188 8.5625 13.7188 6.75C13.7188 4.96875 12.25 3.5 10.4688 3.5C8.6875 3.5 7.25 4.96875 7.25 6.75C7.21875 8.5625 8.6875 10 10.4688 10ZM12.0312 11H8.9375C6.46875 11 4.5 12.875 4.5 15.1875C4.5 15.6562 4.875 16 5.375 16H15.5938C16.0938 16 16.5 15.6562 16.5 15.1875C16.5 12.875 14.5 11 12.0312 11ZM16.5 5C17.875 5 19 3.90625 19 2.5C19 1.125 17.875 0 16.5 0C15.0938 0 14 1.125 14 2.5C14 3.90625 15.0938 5 16.5 5ZM6.21875 6.75C6.21875 6.59375 6.25 6.4375 6.28125 6.28125C5.9375 6.09375 5.5625 6 5.15625 6H3.25C1.71875 6 0.5 7.3125 0.5 8.9375C0.5 9.25 0.71875 9.5 1.03125 9.5H7.28125C6.625 8.78125 6.21875 7.8125 6.21875 6.75ZM4.5 5C5.875 5 7 3.90625 7 2.5C7 1.125 5.875 0 4.5 0C3.09375 0 2 1.125 2 2.5C2 3.90625 3.09375 5 4.5 5ZM17.7188 6H15.8125C15.4062 6 15.0312 6.125 14.6875 6.28125C14.6875 6.4375 14.7188 6.59375 14.7188 6.75C14.7188 7.8125 14.3438 8.78125 13.6875 9.5H19.9375C20.25 9.5 20.5 9.25 20.5 8.9375C20.5 7.3125 19.25 6 17.7188 6Z" fill="#4A4848"/>
</svg>
