<svg width="14" height="13" viewBox="0 0 14 13" fill="none" xmlns="http://www.w3.org/2000/svg">
<path d="M13.4766 6.5C13.4766 6.92188 13.125 7.25 12.7266 7.25H11.9766L12 11C12 11.0703 12 11.1406 12 11.1875V11.5625C12 12.1016 11.5781 12.5 11.0625 12.5H10.6875C10.6406 12.5 10.6172 12.5 10.5938 12.5C10.5703 12.5 10.5234 12.5 10.5 12.5H9.1875C8.64844 12.5 8.25 12.1016 8.25 11.5625V9.5C8.25 9.10156 7.89844 8.75 7.5 8.75H6C5.57812 8.75 5.25 9.10156 5.25 9.5V11.5625C5.25 12.1016 4.82812 12.5 4.3125 12.5H3C2.95312 12.5 2.92969 12.5 2.88281 12.5C2.85938 12.5 2.83594 12.5 2.8125 12.5H2.4375C1.89844 12.5 1.5 12.1016 1.5 11.5625V8.9375C1.5 8.9375 1.5 8.91406 1.5 8.89062V7.25H0.75C0.328125 7.25 0 6.92188 0 6.5C0 6.28906 0.0703125 6.10156 0.234375 5.9375L6.23438 0.710938C6.39844 0.546875 6.58594 0.5 6.75 0.5C6.91406 0.5 7.10156 0.570312 7.24219 0.6875L13.2188 5.9375C13.4062 6.10156 13.5 6.28906 13.4766 6.5Z" fill="#4A4848"/>
</svg>
