<svg width="17" height="14" viewBox="0 0 17 14" fill="none" xmlns="http://www.w3.org/2000/svg">
<path d="M5.5 12H3.5C2.9375 12 2.5 11.5625 2.5 11V3C2.5 2.46875 2.9375 2 3.5 2H5.5C6.03125 2 6.5 1.5625 6.5 1C6.5 0.46875 6.03125 0 5.5 0H3.5C1.8125 0 0.5 1.34375 0.5 3V11C0.5 12.6875 1.8125 14 3.5 14H5.5C6.03125 14 6.5 13.5625 6.5 13C6.5 12.4688 6.03125 12 5.5 12ZM16.1875 6.3125L12.1875 2.3125C11.8125 1.90625 11.1562 1.90625 10.7812 2.3125C10.375 2.6875 10.375 3.34375 10.7812 3.71875L13.0625 6H6.5C5.9375 6 5.5 6.46875 5.5 7C5.5 7.5625 5.9375 8 6.5 8H13.0625L10.7812 10.3125C10.375 10.6875 10.375 11.3438 10.7812 11.7188C11.1562 12.125 11.8125 12.125 12.1875 11.7188L16.1875 7.71875C16.5938 7.34375 16.5938 6.6875 16.1875 6.3125Z" fill="#4A4848"/>
</svg>
