<svg width="12" height="13" viewBox="0 0 12 13" fill="none" xmlns="http://www.w3.org/2000/svg">
<path d="M6.75 6.5C6.75 6.92188 6.39844 7.25 6 7.25C5.57812 7.25 5.25 6.92188 5.25 6.5V1.25C5.25 0.851562 5.57812 0.5 6 0.5C6.39844 0.5 6.75 0.851562 6.75 1.25V6.5ZM1.875 6.5C1.875 8.79688 3.70312 10.625 6 10.625C8.27344 10.625 10.125 8.79688 10.125 6.5C10.125 5.23438 9.53906 4.08594 8.625 3.33594C8.29688 3.07812 8.27344 2.60938 8.53125 2.28125C8.78906 1.95312 9.25781 1.92969 9.58594 2.1875C10.8281 3.21875 11.625 4.76562 11.625 6.5C11.625 9.61719 9.09375 12.125 6 12.125C2.88281 12.125 0.375 9.61719 0.375 6.5C0.375 4.76562 1.14844 3.21875 2.39062 2.1875C2.71875 1.92969 3.1875 1.95312 3.44531 2.28125C3.70312 2.60938 3.67969 3.07812 3.35156 3.33594C2.4375 4.08594 1.875 5.23438 1.875 6.5Z" fill="#4A4848"/>
</svg>
