<svg width="16" height="16" viewBox="0 0 16 16" fill="none" xmlns="http://www.w3.org/2000/svg">
<path d="M14.5 0.975403C13.9375 0.975403 13.5 1.44415 13.5 1.9754V4.31915C12.25 2.56915 10.2188 1.4754 8 1.4754C5.03125 1.4754 2.4375 3.38165 1.53125 6.19415C1.375 6.7254 1.65625 7.2879 2.1875 7.44415C2.71875 7.6004 3.28125 7.31915 3.4375 6.7879C4.0625 4.81915 5.90625 3.4754 8 3.4754C9.5625 3.4754 11 4.25665 11.875 5.4754H10.5C9.9375 5.4754 9.5 5.94415 9.5 6.4754C9.5 7.0379 9.9375 7.4754 10.5 7.4754H14.5C15.0312 7.4754 15.5 7.0379 15.5 6.4754V1.9754C15.5 1.44415 15.0312 0.975403 14.5 0.975403ZM13.7812 9.5379C13.25 9.38165 12.6875 9.6629 12.5312 10.1942C11.9062 12.1629 10.0625 13.4754 8 13.4754C6.40625 13.4754 4.96875 12.7254 4.09375 11.4754H5.5C6.03125 11.4754 6.5 11.0379 6.5 10.4754C6.5 9.94415 6.03125 9.4754 5.5 9.4754H1.5C0.9375 9.4754 0.5 9.94415 0.5 10.4754V14.9754C0.5 15.5379 0.9375 15.9754 1.5 15.9754C2.03125 15.9754 2.5 15.5379 2.5 14.9754V12.6629C3.71875 14.4129 5.75 15.4754 7.96875 15.4754C10.9062 15.4754 13.5 13.6004 14.4062 10.7879C14.5938 10.2567 14.3125 9.69415 13.7812 9.5379Z" fill="#4A4848" fill-opacity="0.8"/>
</svg>
