<svg width="17" height="16" viewBox="0 0 17 16" fill="none" xmlns="http://www.w3.org/2000/svg">
<path d="M16.5 8C16.5 8.25 16.375 8.5 16.1875 8.6875L13.9375 10.9375C13.75 11.1562 13.5 11.25 13.25 11.25C12.6562 11.25 12.25 10.8125 12.25 10.25C12.25 10 12.3438 9.75 12.5312 9.5625L13.0625 9H9.5V12.5938L10.0312 12.0625C10.2188 11.875 10.4688 11.75 10.75 11.75C11.3125 11.75 11.75 12.2188 11.75 12.75C11.75 13.0312 11.625 13.2812 11.4375 13.4688L9.1875 15.7188C9 15.9062 8.75 16 8.5 16C8.21875 16 7.96875 15.9062 7.78125 15.7188L5.53125 13.4688C5.34375 13.2812 5.25 13.0312 5.25 12.75C5.25 12.2188 5.65625 11.75 6.25 11.75C6.5 11.75 6.75 11.875 6.9375 12.0625L7.5 12.5938V9H3.90625L4.4375 9.5625C4.625 9.75 4.75 10 4.75 10.25C4.75 10.8125 4.3125 11.25 3.75 11.25C3.46875 11.25 3.21875 11.1562 3.03125 10.9688L0.78125 8.71875C0.59375 8.53125 0.5 8.28125 0.5 8C0.5 7.6875 0.59375 7.46875 0.78125 7.28125L3.03125 5.03125C3.21875 4.875 3.46875 4.75 3.75 4.75C4.3125 4.75 4.75 5.21875 4.75 5.75C4.75 6.03125 4.625 6.28125 4.4375 6.46875L3.90625 7H7.5V3.4375L6.9375 3.96875C6.75 4.15625 6.5 4.25 6.25 4.25C5.65625 4.25 5.25 3.8125 5.25 3.25C5.25 3 5.34375 2.75 5.53125 2.5625L7.78125 0.3125C7.96875 0.125 8.21875 0 8.5 0C8.75 0 9 0.125 9.1875 0.3125L11.4375 2.5625C11.625 2.75 11.75 3 11.75 3.25C11.75 3.8125 11.3125 4.25 10.75 4.25C10.4688 4.25 10.2188 4.15625 10.0312 3.96875L9.5 3.4375V7H13.0625L12.5312 6.46875C12.3438 6.28125 12.25 6.03125 12.25 5.75C12.25 5.21875 12.6562 4.75 13.25 4.75C13.5 4.75 13.75 4.875 13.9375 5.0625L16.1875 7.3125C16.375 7.5 16.5 7.75 16.5 8Z" fill="#4A4848"/>
</svg>
