<svg width="18" height="17" viewBox="0 0 18 17" fill="none" xmlns="http://www.w3.org/2000/svg">
<path d="M11.9062 5.14496L16.375 5.80121C16.75 5.86371 17.0625 6.11371 17.1875 6.48871C17.3125 6.83246 17.2188 7.23871 16.9375 7.48871L13.6875 10.7075L14.4688 15.27C14.5312 15.645 14.375 16.02 14.0625 16.2387C13.75 16.4887 13.3438 16.4887 13 16.3325L9 14.1762L4.96875 16.3325C4.65625 16.4887 4.21875 16.4887 3.9375 16.2387C3.625 16.02 3.46875 15.645 3.53125 15.27L4.28125 10.7075L1.03125 7.48871C0.75 7.23871 0.65625 6.83246 0.78125 6.48871C0.90625 6.11371 1.21875 5.86371 1.59375 5.80121L6.09375 5.14496L8.09375 0.988708C8.25 0.644958 8.59375 0.426208 9 0.426208C9.375 0.426208 9.71875 0.644958 9.875 0.988708L11.9062 5.14496Z" fill="#4A4848" fill-opacity="0.8"/>
</svg>
