<svg width="18" height="17" viewBox="0 0 18 17" fill="none" xmlns="http://www.w3.org/2000/svg">
<path d="M9 5.4754C7.3125 5.4754 6 6.81915 6 8.44415C6 10.0692 7.3125 11.4754 9 11.4754C10.6562 11.4754 11.9688 10.1317 11.9688 8.4754C11.9688 6.8504 10.6562 5.4754 9 5.4754ZM16.9062 11.3192L14.9375 8.4754L16.9062 5.63165C17.0938 5.31915 16.9375 4.94415 16.5938 4.88165L13.1875 4.25665L12.5625 0.850403C12.5 0.506653 12.125 0.350403 11.8438 0.537903L9 2.5379L6.125 0.569153C5.8125 0.381653 5.4375 0.537903 5.375 0.881653L4.78125 4.2879L1.375 4.9129C1.03125 4.9754 0.875 5.3504 1.0625 5.63165L3.03125 8.4754L1.0625 11.3504C0.875 11.6317 1.03125 12.0067 1.375 12.0692L4.78125 12.6942L5.40625 16.1004C5.46875 16.4442 5.84375 16.6004 6.125 16.4129L9 14.4442L11.8438 16.4129C12.125 16.6004 12.5 16.4442 12.5625 16.1004L13.1875 12.6942L16.5938 12.0692C16.9375 12.0067 17.0938 11.6317 16.9062 11.3192ZM9 12.4754C6.78125 12.4754 5 10.6629 5 8.4754C5 6.2879 6.8125 4.50665 9 4.50665C11.1562 4.50665 12.9688 6.31915 12.9688 8.4754C12.9688 10.6942 11.1875 12.4754 9 12.4754Z" fill="#4A4848" fill-opacity="0.8"/>
</svg>
