<svg width="12" height="11" viewBox="0 0 12 11" fill="none" xmlns="http://www.w3.org/2000/svg">
<path d="M0.914062 4.11719L1.73438 1.77344C2.0625 0.859375 2.90625 0.25 3.86719 0.25H8.10938C9.07031 0.25 9.91406 0.859375 10.2422 1.77344L11.0625 4.11719C11.6016 4.35156 12 4.89062 12 5.5V10C12 10.4219 11.6484 10.75 11.25 10.75H10.5C10.0781 10.75 9.75 10.4219 9.75 10V8.875H2.25V10C2.25 10.4219 1.89844 10.75 1.5 10.75H0.75C0.328125 10.75 0 10.4219 0 10V5.5C0 4.89062 0.375 4.35156 0.914062 4.11719ZM2.55469 4H9.42188L8.8125 2.26562C8.71875 1.96094 8.4375 1.75 8.10938 1.75H3.86719C3.53906 1.75 3.25781 1.96094 3.16406 2.26562L2.55469 4ZM2.25 5.5C1.82812 5.5 1.5 5.85156 1.5 6.25C1.5 6.67188 1.82812 7 2.25 7C2.64844 7 3 6.67188 3 6.25C3 5.85156 2.64844 5.5 2.25 5.5ZM9.75 7C10.1484 7 10.5 6.67188 10.5 6.25C10.5 5.85156 10.1484 5.5 9.75 5.5C9.32812 5.5 9 5.85156 9 6.25C9 6.67188 9.32812 7 9.75 7Z" fill="#4A4848"/>
</svg>
