<svg width="174" height="47" viewBox="0 0 174 47" fill="none" xmlns="http://www.w3.org/2000/svg">
<path d="M1.12109 30.3098L1.89005 31.8477C2.01821 32.072 2.30657 32.1681 2.53085 32.04C4.32509 30.9506 11.2457 26.8174 12.1428 26.8495C16.244 27.0738 6.24749 23.9338 6.24749 23.9338L1.12109 30.3098Z" fill="url(#paint0_linear_453_13042)"/>
<path d="M22.2676 26.0164L22.6521 29.3806C22.6521 29.3806 22.9084 30.6942 23.3569 30.566C23.8055 30.4379 24.991 30.4699 25.2793 29.765C25.5677 29.0602 25.5997 26.0164 25.5997 26.0164H22.2676Z" fill="url(#paint1_linear_453_13042)"/>
<path d="M40.8506 28.868C40.8506 28.868 44.9197 31.0467 45.6886 32.1681C45.7847 32.3283 45.977 32.3923 46.1692 32.3283C47.2265 31.8797 47.611 27.4902 47.611 27.4902L40.8506 28.868Z" fill="url(#paint2_linear_453_13042)"/>
<path d="M3.26774 34.3467C7.27274 29.8932 12.0467 28.2271 17.3013 28.0669C17.6217 28.0669 17.91 28.2271 18.0702 28.5155C18.3906 29.0922 20.5693 32.4243 20.7295 33.1613C21.4344 39.6013 19.9606 43.9267 15.5391 45.4326C15.1225 45.5928 14.6419 45.5928 14.1934 45.4646C12.1108 44.8238 8.8427 42.8053 6.31154 40.0178C4.96586 38.544 4.06874 36.8138 3.17162 35.1157C3.04346 34.8594 3.0755 34.571 3.26774 34.3467Z" fill="url(#paint3_linear_453_13042)"/>
<path d="M45.1442 34.3467C41.1392 29.8932 36.3652 28.2271 31.1106 28.0669C30.7902 28.0669 30.1494 28.0669 29.9892 28.3232C29.6689 28.8999 29.3805 29.3485 29.2203 29.8291C29.0601 30.2777 28.4513 32.4243 28.2911 33.1292C27.5863 39.5692 27.5863 44.151 32.8408 45.4005C33.2894 45.4966 33.7379 45.5607 34.1865 45.4326C36.2691 44.7918 39.5372 42.7732 42.0683 39.9858C43.414 38.5119 44.3111 36.7818 45.2082 35.0836C45.3684 34.8594 45.3364 34.571 45.1442 34.3467Z" fill="url(#paint4_linear_453_13042)"/>
<path d="M47.0338 30.6301C46.9056 31.0466 45.592 30.7903 45.2395 30.6621C41.9714 29.3485 38.7354 28.0348 35.4673 26.7212C34.9867 26.529 34.4741 26.4649 33.9935 26.2726C33.8333 26.2086 33.7051 26.0163 33.609 25.8561C33.577 25.8241 33.7692 25.5998 33.8974 25.5357C36.4926 24.3182 39.184 23.2929 42.0996 23.1968C43.7016 23.1648 45.3356 23.4531 46.9376 23.6454C47.6105 23.7415 47.8988 24.2541 47.9309 24.8949C47.9309 25.2794 47.9309 25.6318 47.9309 26.0163C47.995 26.0484 47.5144 29.1242 47.0338 30.6301Z" fill="#292D32"/>
<path d="M4.61375 23.0686C7.94591 23.1647 11.0538 23.9657 13.9374 25.5677C14.0335 25.6318 14.1296 25.7279 14.1937 25.8561C14.2898 25.9842 14.2578 26.1444 14.1296 26.2406C14.0015 26.3367 13.9053 26.4328 13.7772 26.4648C11.9509 27.1056 10.1246 27.7144 8.33039 28.3872C6.69635 28.964 5.09435 29.6048 3.46032 30.2135C2.97972 30.4058 2.53116 30.63 2.05056 30.7582C1.63404 30.8864 1.34568 30.6941 1.15344 30.3096C0.0961189 28.3552 -9.98378e-07 26.3046 0.448559 24.19C0.480599 23.9657 0.800998 23.6774 1.05732 23.6453C2.21076 23.421 3.42828 23.2608 4.61375 23.0686Z" fill="#292D32"/>
<path d="M14.3858 19.1598C14.4178 19.3841 14.3538 19.7365 14.1936 19.8326C14.0334 19.9288 13.6809 19.8647 13.4887 19.7365C12.3352 18.9676 11.1498 18.1986 10.0604 17.3335C9.70796 17.0452 9.45164 16.5325 9.35552 16.116C8.939 13.5848 8.42636 11.0537 7.08068 8.87496C6.02336 7.1448 7.62536 6.37584 8.7788 5.67096C9.00308 5.5428 9.4196 5.67096 9.64388 5.83116C10.9896 6.85644 12.3352 7.91376 13.6168 9.00312C13.8411 9.19536 13.9693 9.5478 13.9693 9.8682C14.0334 10.8294 14.2256 17.0452 14.3858 19.1598Z" fill="#292D32"/>
<path d="M38.9606 5.51074C39.1208 5.57482 39.3451 5.60686 39.5053 5.73502C39.9218 6.05542 40.3383 6.34378 40.6587 6.72826C41.4597 7.59334 41.3956 7.7215 40.9791 8.77882C40.2422 10.5731 39.5694 12.3673 38.9286 14.1936C38.7684 14.6742 38.7684 15.2509 38.7363 15.7956C38.7043 16.4043 38.48 16.917 37.9674 17.3015C36.8139 18.1025 35.6605 18.9355 34.475 19.7044C34.2828 19.8326 33.9624 19.7685 33.706 19.8006C33.706 19.5442 33.642 19.2879 33.674 19.0316C33.8022 17.6859 34.0585 16.3723 34.0905 15.0266C34.1546 13.2965 34.0905 11.5983 34.1546 9.86818C34.1546 9.51574 34.3148 9.06718 34.5391 8.87494C35.8527 7.78558 37.1984 6.7603 38.512 5.70298C38.6402 5.60686 38.8004 5.57482 38.9606 5.51074Z" fill="#292D32"/>
<path d="M22.0107 13.7452C22.203 13.2325 22.4913 12.3034 22.8438 11.4062C23.0681 10.7975 23.3885 10.2208 23.7089 9.67607C25.2468 7.0488 25.5992 4.03704 26.1759 1.1214C26.24 0.833043 26.5604 0.352443 26.7847 0.352443C27.3294 0.320403 27.9381 0.416523 28.4508 0.640803C28.5789 0.672843 28.5469 1.37772 28.4187 1.69812C27.7139 3.74868 26.9129 5.7672 26.3041 7.81776C26.0157 8.74692 26.0798 9.80423 26.0157 10.7975C25.8235 13.3927 25.8876 16.02 26.3361 18.5832C26.3361 18.6152 26.3682 18.6793 26.3682 18.7113C26.24 19.1919 26.1119 19.6725 25.9837 20.1211C25.5992 19.8968 25.1827 19.7366 24.8623 19.4483C24.2856 18.9036 23.805 18.2628 23.2923 17.654C22.4913 16.6928 22.0748 15.5073 22.0107 13.7452Z" fill="#292D32"/>
<path d="M46.682 21.3705C44.5994 21.4346 42.4847 21.3705 40.4021 21.6269C38.672 21.8191 37.0059 22.3958 35.3078 22.8123C35.1476 22.8444 34.9874 22.9405 34.8272 22.9405C34.667 22.9405 34.4106 22.8764 34.3466 22.7483C34.2825 22.6521 34.3786 22.3638 34.5068 22.2997C35.8524 21.2424 37.134 20.153 38.5758 19.2239C40.7225 17.8461 43.1576 17.0131 45.6567 16.5005C46.3295 16.3403 46.6499 16.5325 46.8742 17.2053C47.1626 18.2306 47.4509 19.2559 47.7072 20.3132C47.9315 21.2103 47.6111 21.5948 46.682 21.3705Z" fill="#292D32"/>
<path d="M2.27428 16.4043C2.6908 16.5004 3.1714 16.6286 3.652 16.7567C6.11908 17.4616 8.52207 18.3587 10.5726 19.9928C11.3736 20.6336 12.1426 21.3064 12.8795 22.0113C13.0077 22.1395 13.0077 22.4278 13.0397 22.6201C12.8154 22.6201 12.6232 22.6201 12.3989 22.556C10.9892 22.2676 9.57939 21.8511 8.16963 21.6589C5.67052 21.3064 3.13936 21.2103 0.64024 21.4987C0.22372 21.5307 -0.0966793 21.4987 0.0635205 20.954C0.448 19.7044 0.83248 18.4549 1.21696 17.2053C1.34512 16.7247 1.63348 16.4043 2.27428 16.4043Z" fill="#292D32"/>
<path d="M32.2634 14.8664C32.0391 18.1025 31.4624 21.1142 29.9245 23.9017C29.508 24.6386 29.2196 25.4396 28.8351 26.1445C28.707 26.4008 28.4186 26.561 28.1943 26.7853C28.0662 26.529 27.8739 26.2726 27.8739 26.0163C27.6497 23.1327 28.1303 20.3453 29.0594 17.5898C29.5721 16.0519 30.341 14.6421 31.2381 13.3285C31.3983 13.1042 31.7508 13.0081 32.0071 12.8479C32.1032 13.1042 32.2634 13.3605 32.2955 13.6169C32.2955 14.0334 32.2634 14.514 32.2634 14.8664Z" fill="#292D32"/>
<path d="M20.1202 23.9659C20.1202 24.5426 20.1523 25.1193 20.1202 25.7281C20.1202 25.8242 20.0882 25.8883 20.0562 25.9524C19.96 26.1126 19.7678 26.1766 19.6076 26.1126C19.5115 26.0485 19.4154 26.0164 19.3513 25.9203C19.1911 25.696 19.095 25.3756 18.9668 25.0873C18.2619 23.5173 17.5891 21.9474 16.8201 20.4094C16.1152 18.9356 16.1152 17.3336 15.9871 15.7636C15.923 14.9626 15.955 14.1937 16.0191 13.3927C16.0191 13.2004 16.2434 12.9762 16.4036 12.9121C16.5318 12.88 16.8201 13.0402 16.8842 13.2004C17.557 14.482 18.294 15.7316 18.8066 17.0773C19.6396 19.288 20.2164 21.5629 20.1202 23.9659Z" fill="#292D32"/>
<path d="M31.7834 8.00991C31.6553 8.49051 31.6232 9.00315 31.3669 9.35559C30.4057 10.8615 29.4125 12.3673 28.3872 13.8412C28.2911 14.0014 27.8745 14.1295 27.7464 14.0334C27.5541 13.9053 27.3939 13.5849 27.426 13.3606C27.5221 12.2712 27.7143 11.1819 27.8105 10.0925C28.0027 8.10603 28.5474 6.21567 29.3163 4.38939C29.4125 4.13307 29.6688 3.94083 29.829 3.71655C30.0212 3.94083 30.2455 4.13307 30.3416 4.35735C30.662 4.96611 30.9504 5.60691 31.2067 6.24771C31.4951 6.82443 31.6232 7.40115 31.7834 8.00991Z" fill="#292D32"/>
<path d="M16.2441 7.59327C16.5966 6.82431 16.917 6.02331 17.2694 5.25435C17.4296 4.90191 17.6219 4.54947 17.8461 4.22907C18.1025 3.84459 18.551 3.87663 18.6792 4.32519C19.1598 5.99127 19.8647 7.59327 20.0249 9.35546C20.153 10.7011 20.3453 12.0468 20.4414 13.3925C20.4734 13.6168 20.3132 13.9372 20.121 14.0653C19.9928 14.1615 19.5443 14.0333 19.4802 13.9051C18.4549 12.0789 17.0772 10.4769 16.4684 8.42631C16.4043 8.16999 16.3723 7.91367 16.3082 7.65735C16.3403 7.62531 16.3082 7.62531 16.2441 7.59327Z" fill="#292D32"/>
<path d="M24.1579 1.89017C23.9977 3.49216 23.4209 5.31844 22.6199 7.0486C22.5238 7.27288 22.2034 7.369 22.0112 7.5292C21.883 7.30492 21.7228 7.11268 21.6267 6.8884C21.1781 5.767 20.7616 4.6456 20.3131 3.5242C19.9927 2.7232 19.6082 1.95425 19.3198 1.15325C19.2557 1.02509 19.48 0.640607 19.6402 0.608567C20.6335 0.384287 21.6267 0.0638873 22.6199 0.0318473C23.9015 -0.0642726 24.1899 0.320207 24.1579 1.89017Z" fill="#292D32"/>
<path d="M21.7228 20.0569C21.6908 19.8326 21.819 19.5763 21.883 19.3521C22.0753 19.4482 22.3316 19.4802 22.4597 19.6404C23.4209 20.6336 24.3821 21.6589 25.3433 22.6842C25.7278 23.0687 25.8239 23.5172 25.6958 24.094C25.5676 24.7348 25.5997 25.3756 25.5997 26.0484C25.5997 27.1057 25.6958 26.9776 24.3501 26.9776C24.1258 26.9776 23.8375 26.9776 23.6132 27.0096C22.2675 27.1378 22.3957 26.9776 22.2675 26.0804C22.0753 24.7027 21.7869 20.7298 21.7228 20.0569Z" fill="#292D32"/>
<path d="M40.5625 14.9626C41.0431 13.6169 41.5237 12.3033 42.0043 10.9897C42.1325 10.6693 42.3247 10.3489 42.4849 10.0605C42.7412 9.54786 42.9975 9.51582 43.382 9.96438C44.4073 11.1499 45.1442 12.4635 45.6889 13.9373C45.8171 14.2898 45.6889 14.5141 45.3365 14.6102C44.0549 14.9947 42.8053 15.3791 41.5237 15.7636C40.947 15.8918 40.6586 15.6355 40.5625 14.9626Z" fill="#292D32"/>
<path d="M7.30468 15.0907C7.30468 15.6674 7.0804 15.8597 6.53572 15.6995C5.35024 15.347 4.13272 14.9625 2.94725 14.5781C2.21033 14.3217 2.11421 14.1295 2.49869 13.4567C3.17153 12.2712 3.90844 11.1177 4.64536 9.9643C4.90168 9.57982 5.19004 9.4837 5.54248 9.90022C6.08716 10.6692 7.30468 14.1615 7.30468 15.0907Z" fill="#292D32"/>
<path d="M16.4364 1.31348C16.5004 1.53776 16.6606 1.79408 16.6286 1.95428C16.3402 2.75528 15.9558 3.52423 15.6354 4.32523C15.4111 4.86991 15.2188 5.41459 15.0586 5.95927C14.8023 6.82435 14.3538 6.98455 13.6489 6.43987C12.8479 5.79907 12.0469 5.15827 11.2779 4.51747C10.9575 4.26115 10.7973 3.97279 11.2779 3.71647C12.8479 2.94752 14.4499 2.17856 16.0519 1.44164C16.0839 1.4096 16.148 1.37756 16.4364 1.31348Z" fill="#292D32"/>
<path d="M33.6093 6.82441C33.4812 6.72829 33.2889 6.60013 33.2249 6.43993C32.5841 4.90202 31.9753 3.3641 31.3986 1.85822C31.3345 1.73006 31.3665 1.50578 31.4627 1.40966C31.5588 1.31354 31.7831 1.31354 31.9112 1.34558C33.4812 2.05046 35.0191 2.78738 36.557 3.5243C36.9415 3.71654 37.1337 4.10102 36.7492 4.45346C35.8521 5.22242 34.923 5.95933 33.9938 6.69625C33.8977 6.76033 33.7695 6.76033 33.6093 6.82441Z" fill="#292D32"/>
<path d="M66.9629 10.1244C66.9629 15.1547 63.887 18.1665 59.3373 18.1665C54.7556 18.1665 52.0322 14.7382 52.0322 10.3808C52.0322 5.79904 55.044 2.4028 59.5937 2.4028C64.3676 2.37076 66.9629 5.89516 66.9629 10.1244ZM55.7489 10.3167C55.7489 13.3284 57.1907 15.4431 59.5296 15.4431C61.9005 15.4431 63.2783 13.2323 63.2783 10.2526C63.2783 7.49716 61.9646 5.1262 59.5296 5.1262C57.1266 5.1262 55.7489 7.33696 55.7489 10.3167Z" fill="#292D32"/>
<path d="M78.5299 15.2509C78.5299 16.2762 78.5619 17.3015 78.7221 17.9103H75.5502L75.3579 16.7889H75.2939C74.5569 17.686 73.4035 18.1345 72.0578 18.1345C69.783 18.1345 68.4053 16.5005 68.4053 14.7383C68.4053 11.8547 71.0326 10.509 75.0375 10.509V10.3809C75.0375 9.77211 74.7171 8.93907 72.987 8.93907C71.8336 8.93907 70.616 9.32355 69.8791 9.77211L69.2383 7.56135C70.0073 7.14483 71.5772 6.56812 73.6278 6.56812C77.3765 6.56812 78.5619 8.74683 78.5619 11.3741V15.2509H78.5299ZM75.1657 12.6877C73.3074 12.6877 71.8976 13.1043 71.8976 14.4179C71.8976 15.315 72.5064 15.7315 73.2753 15.7315C74.1404 15.7315 74.8773 15.1548 75.1016 14.4499C75.1337 14.2577 75.1657 14.0655 75.1657 13.8732V12.6877Z" fill="#292D32"/>
<path d="M84.8418 11.5022H84.8738C85.1301 11.0216 85.4185 10.5731 85.6748 10.1566L87.9497 6.82441H92.1789L88.1419 11.31L92.7557 17.9102H88.4303L85.6748 13.3606L84.8097 14.4499V17.9102H81.3174V1.82617H84.8097V11.5022H84.8418Z" fill="#292D32"/>
<path d="M93.8127 14.9305C94.4535 15.315 95.7992 15.7315 96.8244 15.7315C97.8818 15.7315 98.3303 15.3791 98.3303 14.8344C98.3303 14.2577 97.9779 13.9693 96.6963 13.5528C94.3574 12.7839 93.4282 11.5343 93.4602 10.2207C93.4602 8.13807 95.2545 6.56812 98.042 6.56812C99.3556 6.56812 100.509 6.88851 101.214 7.20891L100.605 9.61191C100.093 9.35559 99.0993 8.97111 98.1701 8.97111C97.305 8.97111 96.8244 9.32355 96.8244 9.86823C96.8244 10.4129 97.273 10.6692 98.6507 11.1498C100.797 11.8868 101.662 12.9761 101.695 14.5781C101.695 16.6607 100.06 18.1666 96.8244 18.1666C95.3506 18.1666 94.037 17.8141 93.1719 17.3656L93.8127 14.9305Z" fill="#292D32"/>
<path d="M56.2619 26.4009V41.6519H52.7695V26.4009H56.2619Z" fill="#292D32"/>
<path d="M59.2739 34.1225C59.2739 32.7448 59.2418 31.5914 59.1777 30.5981H62.2215L62.3817 32.136H62.4458C62.8944 31.3991 64.0478 30.3418 65.9382 30.3418C68.245 30.3418 69.9752 31.8477 69.9752 35.1158V41.6519H66.4828V35.5323C66.4828 34.1225 65.9702 33.1293 64.7207 33.1293C63.7595 33.1293 63.1827 33.7701 62.9264 34.4109C62.8303 34.6352 62.7983 34.9556 62.7983 35.276V41.6519H59.2739V34.1225Z" fill="#292D32"/>
<path d="M76.5746 27.5862V30.5659H79.0737V33.0971H76.5746V37.1021C76.5746 38.4477 76.927 39.0565 77.9523 39.0565C78.4329 39.0565 78.6572 39.0245 78.9776 38.9604L79.0096 41.5556C78.5611 41.7158 77.728 41.844 76.7348 41.844C75.6134 41.844 74.6522 41.4595 74.0755 40.8828C73.4347 40.242 73.1143 39.1526 73.1143 37.6147V33.0971H71.6084V30.5659H73.1143V28.5153L76.5746 27.5862Z" fill="#292D32"/>
<path d="M83.6875 37.2302C83.7836 38.64 86.5711 39.9857 88.4615 37.7749L90.9285 40.2099C89.8712 42.3887 81.1884 43.7984 80.3233 36.3651C80.0029 33.5777 82.5341 30.5979 85.674 30.5339C89.3265 30.4698 91.5053 33.0971 91.5053 35.8205C91.5053 36.3972 91.4412 36.9419 91.3771 37.1661L83.6875 37.2302ZM87.8207 34.8593C87.8207 34.0262 87.4362 32.6165 85.8342 32.6165C84.3603 32.6165 83.7516 33.9621 83.6555 34.8593H87.8207Z" fill="#292D32"/>
<path d="M165.372 37.2302C165.468 38.64 168.256 39.9857 170.146 37.7749L172.613 40.2099C171.556 42.3887 162.873 43.7984 162.008 36.3651C161.687 33.5777 164.219 30.5979 167.359 30.5339C171.011 30.4698 173.19 33.0971 173.19 35.8205C173.19 36.3972 173.126 36.9419 173.062 37.1661L165.372 37.2302ZM169.505 34.8593C169.505 34.0262 169.121 32.6165 167.519 32.6165C166.045 32.6165 165.436 33.9621 165.34 34.8593H169.505Z" fill="#292D32"/>
<path d="M93.1719 25.5679H96.6642V41.6519H93.1719V25.5679Z" fill="#292D32"/>
<path d="M99.5156 25.5679H103.008V41.6519H99.5156V25.5679Z" fill="#292D32"/>
<path d="M109.48 27.4902C109.48 28.4514 108.775 29.2203 107.59 29.2203C106.469 29.2203 105.764 28.4514 105.764 27.4902C105.764 26.529 106.501 25.76 107.622 25.76C108.775 25.792 109.448 26.529 109.48 27.4902ZM105.86 41.6518V30.598H109.352V41.6518H105.86Z" fill="#292D32"/>
<path d="M123.432 40.0499C123.432 42.1645 122.983 43.9267 121.701 45.0161C120.484 46.0414 118.433 46.2657 116.671 46.0414C115.197 45.8491 112.025 44.0869 111 43.5423L112.218 40.7868C112.922 41.2033 115.357 42.7413 116.703 42.7413C118.369 42.7413 119.939 42.8694 119.939 40.8189V40.114H119.907C119.234 41.0111 118.145 41.5558 116.863 41.5558C114.076 41.5558 112.089 39.345 112.089 36.1731C112.089 32.5846 114.428 30.3418 117.216 30.3418C118.754 30.3418 119.715 30.9826 120.292 31.9118H120.324L120.452 30.5661H123.496C123.464 31.303 123.399 32.2322 123.399 33.8662V40.0499H123.432ZM119.939 35.0837C119.939 34.8915 119.907 34.6672 119.875 34.4429C119.619 33.5458 118.946 32.937 117.985 32.937C116.703 32.937 115.678 34.0584 115.678 36.077C115.678 37.743 116.511 39.0246 117.953 39.0246C118.882 39.0246 119.587 38.4479 119.811 37.6469C119.907 37.3906 119.939 37.0061 119.939 36.7178V35.0837Z" fill="#292D32"/>
<path d="M128.943 37.2303C129.039 38.6401 130.481 39.345 132.115 39.345C133.301 39.345 134.294 39.1848 135.223 38.8644L135.672 41.2033C134.518 41.6839 133.109 41.9082 131.603 41.9082C127.758 41.9082 125.579 39.7295 125.579 36.2691C125.579 33.4496 127.341 30.3738 131.282 30.3738C134.935 30.3738 136.312 33.1613 136.312 35.8847C136.312 36.4614 136.248 37.0061 136.184 37.2303H128.943ZM133.076 34.8594C133.076 34.0263 132.692 32.6166 131.09 32.6166C129.616 32.6166 129.007 33.9623 128.911 34.8594H133.076Z" fill="#292D32"/>
<path d="M138.426 34.1225C138.426 32.7448 138.394 31.5914 138.33 30.5981H141.374L141.534 32.136H141.598C142.047 31.3991 143.2 30.3418 145.091 30.3418C147.397 30.3418 149.128 31.8477 149.128 35.1158V41.6519H145.635V35.5323C145.635 34.1225 145.123 33.1293 143.873 33.1293C142.912 33.1293 142.335 33.7701 142.079 34.4109C141.983 34.6352 141.951 34.9556 141.951 35.276V41.6519H138.458V34.1225H138.426Z" fill="#292D32"/>
<path d="M161.207 39.6654C160.438 40.3062 159.317 42.1004 157.042 42.1004C153.39 42.1004 150.858 39.7294 150.858 36.2691C150.858 33.0331 152.46 30.7903 156.658 30.7903C157.587 30.7903 159.733 31.2388 160.887 32.7768L158.292 35.1477C158.196 34.2186 155.152 32.3602 154.062 35.9167C153.486 37.8391 155.408 38.9284 156.658 38.9284C157.491 38.9284 158.099 38.3517 158.836 37.5828L161.207 39.6654Z" fill="#292D32"/>
<path d="M108.808 7.81752C110.931 7.81752 112.652 6.09615 112.652 3.97273C112.652 1.8493 110.931 0.12793 108.808 0.12793C106.684 0.12793 104.963 1.8493 104.963 3.97273C104.963 6.09615 106.684 7.81752 108.808 7.81752Z" fill="url(#paint5_linear_453_13042)"/>
<defs>
<linearGradient id="paint0_linear_453_13042" x1="7.11337" y1="32.1182" x2="7.11337" y2="23.9748" gradientUnits="userSpaceOnUse">
<stop offset="4.74173e-07" stop-color="#5F9630"/>
<stop offset="1" stop-color="#A6B953"/>
</linearGradient>
<linearGradient id="paint1_linear_453_13042" x1="23.9306" y1="30.5844" x2="23.9306" y2="26.0201" gradientUnits="userSpaceOnUse">
<stop offset="4.74173e-07" stop-color="#5F9630"/>
<stop offset="1" stop-color="#A6B953"/>
</linearGradient>
<linearGradient id="paint2_linear_453_13042" x1="44.2383" y1="32.3373" x2="44.2383" y2="27.4774" gradientUnits="userSpaceOnUse">
<stop offset="4.74173e-07" stop-color="#5F9630"/>
<stop offset="1" stop-color="#A6B953"/>
</linearGradient>
<linearGradient id="paint3_linear_453_13042" x1="12.0003" y1="45.5571" x2="12.0003" y2="28.0786" gradientUnits="userSpaceOnUse">
<stop offset="4.74173e-07" stop-color="#5F9630"/>
<stop offset="1" stop-color="#A6B953"/>
</linearGradient>
<linearGradient id="paint4_linear_453_13042" x1="36.6432" y1="45.5438" x2="36.6432" y2="28.0761" gradientUnits="userSpaceOnUse">
<stop offset="4.74173e-07" stop-color="#5F9630"/>
<stop offset="1" stop-color="#A6B953"/>
</linearGradient>
<linearGradient id="paint5_linear_453_13042" x1="108.798" y1="7.81845" x2="108.798" y2="0.105854" gradientUnits="userSpaceOnUse">
<stop offset="1.6303e-06" stop-color="#EB8A00"/>
<stop offset="1" stop-color="#EBB327"/>
</linearGradient>
</defs>
</svg>
